<svg width="42" height="40" viewBox="0 0 42 40" fill="none" xmlns="http://www.w3.org/2000/svg">
<path d="M40.4079 18.0496V26.6153C40.4089 28.1521 40.0051 29.6621 39.2371 30.9933C38.4691 32.3244 37.3641 33.4298 36.0332 34.1982L26.6625 39.6098C26.0118 39.9841 25.2418 40.0931 24.5128 39.9141C23.7838 39.7351 23.1519 39.2819 22.7485 38.6488C21.6284 36.8846 21.0028 34.8519 20.9369 32.7632C20.8711 30.6745 21.3676 28.6065 22.3744 26.7753C23.3812 24.9441 24.8614 23.4169 26.6603 22.3535C28.4592 21.29 30.5107 20.7292 32.6005 20.7298H34.9395C35.9951 20.73 37.0367 20.4885 37.9846 20.0239C38.9324 19.5594 39.7614 18.884 40.4079 18.0496V18.0496Z" fill="#FF7900"/>
<path d="M36.0335 5.80898C37.3644 6.57738 38.4694 7.68279 39.2374 9.01395C40.0054 10.3451 40.4092 11.8551 40.4082 13.3919V13.8089C40.4067 15.2588 39.83 16.6488 38.8048 17.674C37.7796 18.6992 36.3896 19.2758 34.9398 19.2774H32.5978C30.5074 19.2781 28.4552 18.7172 26.6559 17.6532C24.8565 16.5892 23.3761 15.0613 22.3695 13.2292C21.3628 11.3972 20.867 9.32831 20.9337 7.23898C21.0004 5.14966 21.6273 3.11664 22.7488 1.35256C23.1528 0.720203 23.7851 0.267914 24.514 0.0897481C25.243 -0.0884179 26.0126 0.0212516 26.6627 0.395951L36.0335 5.80898Z" fill="#FF7900"/>
<path d="M19.472 7.57935C19.4881 14.0102 14.0838 19.2716 7.65145 19.2716H5.46407C4.40909 19.2723 3.36825 19.5143 2.42118 19.9791C1.47412 20.4439 0.645934 21.1192 1.79883e-06 21.9533V13.3861C-0.000983519 11.8493 0.402832 10.3393 1.17081 9.00817C1.93879 7.67701 3.04384 6.5716 4.37476 5.8032L13.7426 0.396002C14.385 0.020747 15.147 -0.0933141 15.8711 0.0774016C16.5952 0.248117 17.2261 0.690554 17.6332 1.31324C18.8339 3.18259 19.4722 5.35759 19.472 7.57935V7.57935Z" fill="#FF7900"/>
<path d="M19.472 32.4236C19.4716 34.6443 18.8334 36.8182 17.6332 38.6867C17.2261 39.3094 16.5952 39.7519 15.8711 39.9226C15.147 40.0933 14.385 39.9792 13.7426 39.604L4.37476 34.1924C3.04384 33.424 1.93879 32.3186 1.17081 30.9874C0.402832 29.6563 -0.000983519 28.1463 1.79883e-06 26.6095V26.1924C0.00193091 24.7427 0.578688 23.3529 1.6038 22.3278C2.62892 21.3027 4.01872 20.7259 5.46844 20.724H7.65582C14.0838 20.7298 19.4881 25.9927 19.472 32.4236Z" fill="#FF7900"/>
</svg>
